<?xml version="1.0" encoding="UTF-8"?>
<svg id="Ebene_2" data-name="Ebene 2" xmlns="http://www.w3.org/2000/svg" xmlns:xlink="http://www.w3.org/1999/xlink" viewBox="0 0 803.51734 197.35606">
  <defs>
    <style>
      .cls-1 {
        fill: url(#linear-gradient-8);
      }

      .cls-2 {
        fill: url(#linear-gradient-7);
      }

      .cls-3 {
        fill: url(#linear-gradient-5);
      }

      .cls-4 {
        fill: url(#linear-gradient-6);
      }

      .cls-5 {
        fill: url(#linear-gradient-9);
      }

      .cls-6 {
        fill: url(#linear-gradient-4);
      }

      .cls-7 {
        fill: url(#linear-gradient-3);
      }

      .cls-8 {
        fill: url(#linear-gradient-2);
      }

      .cls-9 {
        fill: url(#linear-gradient);
      }

      .cls-10 {
        fill: #fff;
      }

      .cls-11 {
        fill: url(#linear-gradient-10);
      }

      .cls-12 {
        fill: url(#linear-gradient-11);
      }

      .cls-13 {
        fill: url(#linear-gradient-12);
      }

      .cls-14 {
        fill: url(#linear-gradient-13);
      }

      .cls-15 {
        fill: url(#linear-gradient-14);
      }

      .cls-16 {
        fill: url(#linear-gradient-15);
      }

      .cls-17 {
        fill: url(#linear-gradient-16);
      }

      .cls-18 {
        fill: url(#linear-gradient-17);
      }

      .cls-19 {
        fill: url(#linear-gradient-18);
      }
    </style>
    <linearGradient id="linear-gradient" x1="428.45913" y1="104.35543" x2="831.2214" y2="104.35543" gradientUnits="userSpaceOnUse">
      <stop offset="0" stop-color="#09c2ff"/>
      <stop offset="1" stop-color="#f207ff"/>
    </linearGradient>
    <linearGradient id="linear-gradient-2" x1="428.45913" y1="104.80638" x2="831.2214" y2="104.80638" xlink:href="#linear-gradient"/>
    <linearGradient id="linear-gradient-3" y1="103.90448" x2="831.2214" y2="103.90448" xlink:href="#linear-gradient"/>
    <linearGradient id="linear-gradient-4" x1="428.45913" x2="831.2214" xlink:href="#linear-gradient"/>
    <linearGradient id="linear-gradient-5" x1="428.45913" y1="121.21983" x2="831.2214" y2="121.21983" xlink:href="#linear-gradient"/>
    <linearGradient id="linear-gradient-6" x1="428.45913" x2="831.2214" xlink:href="#linear-gradient"/>
    <linearGradient id="linear-gradient-7" x1="428.45913" y1="97.09556" x2="831.2214" y2="97.09556" xlink:href="#linear-gradient"/>
    <linearGradient id="linear-gradient-8" x1="428.45913" y1="133.20667" x2="831.2214" y2="133.20667" xlink:href="#linear-gradient"/>
    <linearGradient id="linear-gradient-9" x1="428.45913" y1="104.36656" x2="831.2214" y2="104.36656" xlink:href="#linear-gradient"/>
    <linearGradient id="linear-gradient-10" x1="159.07209" y1="63.70054" x2="37.16146" y2="63.70054" xlink:href="#linear-gradient"/>
    <linearGradient id="linear-gradient-11" x1="88.48978" y1="-.07196" x2="88.48978" y2="193.73633" xlink:href="#linear-gradient"/>
    <linearGradient id="linear-gradient-12" x1="80.08029" y1="0" x2="80.08029" y2="193.8083" xlink:href="#linear-gradient"/>
    <linearGradient id="linear-gradient-13" x1="128.40239" y1="-.07196" x2="128.40239" y2="193.73633" xlink:href="#linear-gradient"/>
    <linearGradient id="linear-gradient-14" x1="75.27328" y1="-.07196" x2="75.27328" y2="193.73633" xlink:href="#linear-gradient"/>
    <linearGradient id="linear-gradient-15" x1="154.07203" y1="-.07196" x2="154.07203" y2="193.73633" xlink:href="#linear-gradient"/>
    <linearGradient id="linear-gradient-16" x1="24.87064" y1="-.07196" x2="24.87064" y2="193.73633" xlink:href="#linear-gradient"/>
    <linearGradient id="linear-gradient-17" x1="176.07566" y1="-.07196" x2="176.07566" y2="193.73633" xlink:href="#linear-gradient"/>
    <linearGradient id="linear-gradient-18" x1="70.03525" y1="-.07196" x2="70.03525" y2="193.73633" xlink:href="#linear-gradient"/>
  </defs>
  <g id="Layer_1" data-name="Layer 1">
    <g>
      <g>
        <path class="cls-10" d="M251.95337,125.99962h-10.64185c-4.02867,0-7.16954-1.24855-9.42429-3.74841-2.25447-2.49959-3.38184-5.91684-3.38184-10.25398v-40.28859h7.93616v11.00261h15.51183v7.5754h-15.51183v22.72647c0,1.9839.46506,3.38184,1.39794,4.19355.9315.81171,2.44896,1.21756,4.55431,1.21756h9.55957v7.5754Z"/>
        <path class="cls-10" d="M300.83241,104.35543c0,6.49312-2.22487,11.87463-6.6735,16.14288-4.45001,4.26963-9.73995,6.4032-15.87259,6.4032s-11.40819-2.11946-15.82722-6.35811c-4.41903-4.23865-6.62868-9.63427-6.62868-16.18798,0-6.5526,2.20965-11.94961,6.62868-16.18825,4.41903-4.23865,9.69486-6.35783,15.82722-6.35783,6.19184,0,11.49866,2.11919,15.91768,6.35783s6.6284,9.63565,6.6284,16.18825ZM292.44531,104.35543c0-4.44863-1.32297-8.05595-3.96808-10.82223-2.64622-2.76462-6.04217-4.14846-10.1909-4.14846-4.14846,0-7.54579,1.38383-10.19063,4.14846-2.64649,2.76628-3.96808,6.3736-3.96808,10.82223,0,4.45001,1.32159,8.05733,3.96808,10.82196,2.64483,2.76628,6.04217,4.14846,10.19063,4.14846,4.14873,0,7.54469-1.38217,10.1909-4.14846,2.64511-2.76462,3.96808-6.37194,3.96808-10.82196Z"/>
        <path class="cls-10" d="M342.65258,82.69575l-5.61418,9.78062c-1.20318,2.09816-2.36015,3.86682-3.47203,5.30405-1.11326,1.43861-2.20938,2.30814-3.29165,2.60693,3.36635.78211,5.85487,2.17977,7.46418,4.19355,1.60931,2.01489,2.41382,4.91507,2.41382,8.70277v12.71594h-7.93616v-11.81404c0-2.64511-.61722-4.61352-1.84889-5.90716-1.23306-1.29226-2.96188-1.93908-5.18564-1.93908h-9.01843v19.66029h-7.93616v-63.21923h7.93616v35.98355h3.33675c1.68262,0,3.05096-.27057,4.10364-.81171,1.05102-.54114,1.90782-1.35257,2.57013-2.43485l7.47414-12.80613,9.00433-.01549Z"/>
        <path class="cls-10" d="M391.37614,106.79028c0,5.71267-2.19554,10.49246-6.58358,14.33936-4.38915,3.84829-9.73968,5.77188-16.05269,5.77188-6.13236,0-11.40819-2.11946-15.82722-6.35811-4.41903-4.23865-6.62868-9.63427-6.62868-16.18798,0-6.5526,2.20965-11.94961,6.62868-16.18825s9.69486-6.35783,15.82722-6.35783c4.86998,0,9.04804,1.18796,12.53584,3.56222,3.48587,2.37592,6.31274,5.75777,8.47702,10.14581l-29.30978,16.23307-3.26067-6.33819,21.40184-11.85361c-1.44442-1.45134-2.87307-2.50982-4.28651-3.17491-1.41482-.66508-3.26344-.99901-5.54917-.99901-4.15122,0-7.5516,1.38383-10.19782,4.14846-2.64649,2.76628-3.96946,6.3736-3.96946,10.82223,0,4.45001,1.32297,8.05733,3.96946,10.82196,2.64622,2.76628,6.04383,4.14846,10.19367,4.14846,4.38943,0,7.68246-1.1567,9.87801-3.47203,2.19527-2.31367,3.74399-5.66592,4.64589-10.05562l8.10796.99209Z"/>
        <path class="cls-10" d="M434.93453,125.99962h-7.93616v-25.25151c0-3.24684-1.02307-5.95226-3.0659-8.11681-2.04504-2.16428-4.54048-3.24656-7.48521-3.24656-2.88608,0-5.36602,1.06817-7.44039,3.20146-2.07437,2.13495-3.11127,4.85587-3.11127,8.16191v25.25151h-7.93616v-25.25151c0-5.6507,1.74293-10.22051,5.23046-13.70803,3.48642-3.48642,7.90517-5.23074,13.25736-5.23074,5.34998,0,9.76928,1.74432,13.25681,5.23074,3.48642,3.48753,5.23046,8.05733,5.23046,13.70803v25.25151Z"/>
        <path class="cls-9" d="M486.97133,106.79028c0,5.71267-2.19554,10.49246-6.58386,14.33936-4.38943,3.84829-9.7394,5.77188-16.05269,5.77188-6.13236,0-11.40819-2.11946-15.82749-6.35811-4.41875-4.23865-6.62813-9.63427-6.62813-16.18798,0-6.5526,2.20938-11.94961,6.62813-16.18825,4.4193-4.23865,9.69514-6.35783,15.82749-6.35783,4.87025,0,9.04831,1.18796,12.53584,3.56222,3.48587,2.37592,6.31274,5.75777,8.4773,10.14581l-29.31005,16.23307-3.26067-6.33819,21.40211-11.85361c-1.4447-1.45134-2.87335-2.50982-4.28706-3.17491-1.41427-.66508-3.26344-.99901-5.54917-.99901-4.15095,0-7.55105,1.38383-10.19754,4.14846-2.64649,2.76628-3.96946,6.3736-3.96946,10.82223,0,4.45001,1.32297,8.05733,3.96946,10.82196,2.64649,2.76628,6.04383,4.14846,10.19367,4.14846,4.38943,0,7.68274-1.1567,9.87773-3.47203,2.19554-2.31367,3.74426-5.66592,4.64616-10.05562l8.10824.99209Z"/>
        <path class="cls-8" d="M530.52972,107.96275c0,5.65208-1.74404,10.22189-5.23046,13.70803-3.48753,3.48753-7.90683,5.23074-13.25681,5.23074-5.35219,0-9.77094-1.74321-13.25736-5.23074-3.48753-3.48614-5.23046-8.05595-5.23046-13.70803v-25.25151h7.93616v25.25151c0,3.24656,1.02141,5.95226,3.0659,8.11654,2.04338,2.16456,4.53882,3.24656,7.48576,3.24656,2.88552,0,5.36547-1.06651,7.43984-3.20146,2.07437-2.1333,3.11127-4.85448,3.11127-8.16163v-25.25151h7.93616v25.25151Z"/>
        <path class="cls-7" d="M560.02015,89.38474h-1.17247c-3.9678,0-6.98889,1.30775-9.06325,3.92298-2.07437,2.61551-3.11127,6.77946-3.11127,12.49047v20.20143h-7.93616v-43.28838h7.5754v4.95989c1.44304-2.10369,3.09578-3.60732,4.95989-4.50894,1.863-.9019,4.17806-1.35285,6.94407-1.35285h1.8038v7.5754Z"/>
        <path class="cls-6" d="M708.28291,106.79028c0,5.71267-2.19554,10.49246-6.58386,14.33936-4.38943,3.84829-9.7394,5.77188-16.05269,5.77188-6.13236,0-11.40819-2.11946-15.82749-6.35811-4.41875-4.23865-6.62813-9.63427-6.62813-16.18798,0-6.5526,2.20938-11.94961,6.62813-16.18825,4.4193-4.23865,9.69514-6.35783,15.82749-6.35783,4.87025,0,9.04831,1.18796,12.53584,3.56222,3.48587,2.37592,6.31274,5.75777,8.4773,10.14581l-29.31005,16.23307-3.26067-6.33819,21.40211-11.85361c-1.4447-1.45134-2.87335-2.50982-4.28706-3.17491-1.41427-.66508-3.26344-.99901-5.54917-.99901-4.15095,0-7.55105,1.38383-10.19754,4.14846-2.64649,2.76628-3.96946,6.3736-3.96946,10.82223,0,4.45001,1.32297,8.05733,3.96946,10.82196,2.64649,2.76628,6.04383,4.14846,10.19367,4.14846,4.38943,0,7.68274-1.1567,9.87773-3.47203,2.19554-2.31367,3.74426-5.66592,4.64616-10.05562l8.10824.99209Z"/>
        <path class="cls-3" d="M728.66416,121.21983c0,1.50363-.51126,2.76601-1.53323,3.7877-1.02307,1.02169-2.28573,1.53323-3.78742,1.53323-1.44304,0-2.69186-.52703-3.7426-1.57832-1.05295-1.05102-1.5786-2.29957-1.5786-3.7426,0-1.50224.51015-2.76462,1.53323-3.7877,1.02141-1.02169,2.28407-1.53323,3.78798-1.53323,1.44248,0,2.68965.52703,3.7426,1.57832,1.05129,1.05268,1.57805,2.29957,1.57805,3.7426Z"/>
        <path class="cls-4" d="M782.50476,125.99962h-7.93616v-24.34988c0-3.8469-1.37277-6.85388-4.11775-9.01843-2.74498-2.16428-6.07592-3.24656-9.99614-3.24656-4.22177,0-7.66005,1.47402-10.31374,4.41903-2.65479,2.94666-3.98053,6.52438-3.98053,10.73204,0,4.02867,1.34123,7.5007,4.02701,10.4161,2.68467,2.91706,6.07924,4.37393,10.1826,4.37393,2.23206,0,4.23892-.50988,6.01838-1.53295,1.78001-1.02169,3.42445-2.49433,4.93333-4.41903v9.37919c-1.93051,1.44276-3.72434,2.49544-5.38151,3.15637s-3.78189.99209-6.37471.99209c-6.21038,0-11.31966-2.20965-15.32841-6.62868-4.0093-4.41903-6.01284-9.87524-6.01284-16.36836,0-6.37222,2.029-11.64777,6.08754-15.82749,4.05799-4.17806,9.48322-6.26764,16.27789-6.26764,6.67405,0,11.9947,1.86411,15.9625,5.5915,3.96835,3.72849,5.95253,8.71826,5.95253,14.97041v23.62837Z"/>
        <path class="cls-2" d="M803.51734,72.97129c0,1.38383-.40558,2.52504-1.21729,3.42694s-1.99967,1.35285-3.56222,1.35285c-1.44304,0-2.60167-.46506-3.47259-1.39794-.87202-.9315-1.30748-2.05887-1.30748-3.38184,0-1.38245.40613-2.52532,1.21784-3.42694.81116-.9019,1.99801-1.35285,3.56222-1.35285,1.44248,0,2.59946.46644,3.47203,1.39794.87091.93261,1.30748,2.05998,1.30748,3.38184ZM802.70563,125.99962h-7.93616v-43.28838h7.93616v43.28838Z"/>
      </g>
      <g>
        <path class="cls-1" d="M613.76972,145.47904h7.93795v-19.88739c-2.74802-1.23517-5.39964-2.78762-7.93795-4.65737v24.54475Z"/>
        <path class="cls-5" d="M651.96362,88.57058c-4.05675-4.50441-9.51303-6.75943-16.36877-6.75943-6.43654,0-11.67751,2.20969-15.73993,6.62909-3.55821,3.86983-5.55263,8.75385-5.99458,14.64074,2.69131,3.35421,5.34866,5.90388,7.84735,7.84164v-3.86416c0-5.71125,1.30886-10.08536,3.93211-13.11661,2.62332-3.03692,5.95488-4.55538,10.00036-4.55538,4.27773,0,7.76235,1.39379,10.44799,4.19276,2.68564,2.79329,4.02839,6.41949,4.02839,10.86722,0,4.51008-1.30312,8.1136-3.89241,10.82192-1.84142,1.91508-4.11913,3.15025-6.83313,3.7055-.71958.15299-1.47312.25497-2.26367.30619-.00387.00028-.0746.00557-.21792.0111-8.14093.31423-16.21555-5.53691-21.56635-11.1189-2.94721-3.07456-5.4893-6.51386-7.76909-10.10515-2.16256-3.40662-3.79548-7.07006-6.74524-9.89882-4.41937-4.23809-9.72833-6.35714-15.91547-6.35714-6.13623,0-11.41123,2.11905-15.83061,6.35714-4.41944,4.23809-6.62916,9.63206-6.62916,16.18753s2.20972,11.94943,6.62916,16.18753c4.41937,4.23809,9.69437,6.35714,15.83061,6.35714,6.13042,0,11.42244-2.13039,15.87017-6.40248,2.15308-2.05673,3.77919-4.37974,4.88402-6.9634-.57793-.64025-1.14453-1.30883-1.70545-1.98874-1.92068-2.3457-3.55254-4.67438-4.89529-6.81611-.06806,4.27779-1.39386,7.76231-3.96614,10.44795-2.64601,2.76497-6.03996,4.14746-10.18731,4.14746-4.15316,0-7.54704-1.38249-10.19305-4.14746s-3.96614-6.37416-3.96614-10.82189,1.32013-8.05695,3.96621-10.82195c4.74782-4.96121,13.99735-5.7408,19.24379-1.09747,2.26403,2.00377,3.59661,4.84452,4.99718,7.46456,3.82677,7.15876,8.91425,13.72793,15.3741,18.64344,6.90263,5.25244,16.22904,9.18067,25.06132,8.23712,4.6517-.49293,8.78217-2.54399,12.38569-6.14754,4.17578-4.17578,6.26647-9.24678,6.26647-15.19599,0-6.73111-2.0283-12.35736-6.08519-16.86741Z"/>
      </g>
    </g>
    <g>
      <path class="cls-11" d="M58.83936,43.60295c-11.1013,0-20.09764,8.99784-20.09764,20.0991,0,11.09825,8.99634,20.09609,20.09764,20.09609h78.40646c11.09975,0,20.0975-8.99784,20.0975-20.09609,0-11.10126-8.99775-20.0991-20.0975-20.0991H58.83936Z"/>
      <path class="cls-12" d="M58.83936,43.60295c15.88174,0,19.10563,16.35534,19.10563,30.74618v76.66456c0,11.09827,8.99775,20.09609,20.09759,20.09609s20.09759-8.99782,20.09759-20.09609v-62.75625c0-24.62113-20.0334-44.65449-44.65458-44.65449h-14.64624Z"/>
      <g>
        <path class="cls-13" d="M3.94328,126.10296c.32184,1.11253,1.48408,1.75171,2.59783,1.42907.20865-.06095.40043-.15015.5724-.26385.74519-.4927,1.11833-1.42893.85827-2.33155C-3.58112,85.03521,11.95726,42.82068,46.64166,19.88833,80.50606-2.50185,124.76474-.80126,156.77556,24.12152c.91426.70826,2.22748.54919,2.94363-.36662.70952-.91509.54677-2.23124-.36665-2.94367C125.92052-5.21537,79.69577-6.99143,44.32972,16.3916,8.10754,40.34068-8.12248,84.4291,3.94328,126.10296"/>
        <path class="cls-14" d="M171.11072,34.71075c-.8829.74495-.99482,2.06542-.24997,2.95374,2.38248,2.82325,4.63122,5.82629,6.67868,8.923,28.72784,43.44989,16.74956,102.17076-26.69912,130.89779-26.28773,17.3807-59.37229,20.51333-88.50091,8.37935-1.0706-.44369-2.29816.06168-2.74265,1.13103-.44331,1.06857.06125,2.29486,1.12939,2.74021,30.42178,12.67052,64.97315,9.39726,92.42611-8.75386,45.3777-30.00245,57.8868-91.33082,27.88516-136.70729-2.13809-3.23379-4.48373-6.36437-6.96972-9.31442-.6958-.82223-1.88729-.9747-2.76083-.39714-.06731.04451-.13337.09356-.19614.14758"/>
        <path class="cls-15" d="M18.97573,59.33274c-13.91649,28.2745-11.77674,62.14622,5.58255,88.40156,25.14046,38.02411,74.57585,50.91051,114.99627,29.97394.0664-.03497.13034-.07366.19393-.1157.88222-.5833,1.20116-1.75052.70141-2.70956-.5318-1.02918-1.79647-1.43053-2.82526-.90079-38.51018,19.94942-85.61353,7.67023-109.56837-28.56065-16.54032-25.01667-18.57926-57.29486-5.31957-84.23603.51154-1.03845.08414-2.29428-.9539-2.80784-.69605-.34037-1.48603-.26218-2.08546.13415-.30028.19854-.55328.47687-.7216.82093"/>
        <path class="cls-16" d="M120.5907,14.62024c-.31545,1.11299.32983,2.27313,1.44238,2.59057,19.41094,5.54086,36.24324,17.87821,47.39261,34.74126,8.65287,13.08718,13.4992,28.25057,14.01643,43.84955.03703,1.15575,1.00642,2.06395,2.16596,2.02442.39943-.01337.77072-.13708,1.08355-.34392.58939-.38969.96738-1.06405.94041-1.81988-.54331-16.37513-5.62991-32.28944-14.70958-46.02213-11.70058-17.69673-29.36545-30.64589-49.73914-36.4618-.61258-.17344-1.23862-.05859-1.7321.26768-.40251.26613-.71608.67223-.86052,1.17425"/>
        <path class="cls-17" d="M17.83902,145.53797c2.56735,3.88303,7.79721,4.95083,11.6815,2.38265,3.88303-2.56735,4.95004-7.79846,2.38268-11.68149-2.56818-3.88429-7.7993-4.95126-11.68233-2.38391-3.88429,2.56818-4.95004,7.79846-2.38185,11.68275"/>
        <path class="cls-18" d="M169.48655,157.93055c2.40586,3.63879,7.30699,4.63741,10.94583,2.23151,3.63748-2.405,4.6382-7.30576,2.23234-10.94454s-7.30705-4.63734-10.94452-2.23235c-3.63884,2.4059-4.6395,7.30659-2.23364,10.94538"/>
        <path class="cls-19" d="M65.3851,10.58682c1.69809,2.56831,5.15679,3.27598,7.72517,1.57784,2.56709-1.69729,3.27182-5.1577,1.57373-7.726-1.69648-2.56587-5.15478-3.27014-7.72187-1.57285-2.56838,1.69814-3.27351,5.15515-1.57702,7.72102"/>
      </g>
    </g>
  </g>
</svg>