<svg width="152" height="36" viewBox="0 0 152 36" fill="none" xmlns="http://www.w3.org/2000/svg">
<path d="M24.0918 18.5421C24.0918 15.2842 21.445 12.6436 18.1797 12.6436C14.9143 12.6436 12.2675 15.2842 12.2675 18.5421H24.0906H24.0918Z" fill="#FCE500"/>
<path d="M22.4324 23.9902L21.7737 24.4861L28.1958 33.8887L30.5888 32.0312L22.4324 23.9902Z" fill="#27509B"/>
<path d="M24.4327 22.5596L28.5197 26.1519L29.6365 24.2297L24.4327 22.5596Z" fill="#27509B"/>
<path d="M25.7366 20.4131L34.8055 23.2257L35.1809 21.0338L25.7366 20.4131Z" fill="#27509B"/>
<path d="M13.9275 23.9902L14.5862 24.4861L8.16289 33.8887L5.77112 32.0312L13.9275 23.9902Z" fill="#27509B"/>
<path d="M11.927 22.5596L7.84 26.1519L6.72321 24.2297L11.927 22.5596Z" fill="#27509B"/>
<path d="M10.6224 20.4131L1.55347 23.2257L1.17688 21.0338L10.6224 20.4131Z" fill="#27509B"/>
<path d="M17.8438 10.9548H18.5144L19.0727 2.34019C19.0916 2.05163 18.8614 1.80664 18.5722 1.80664H17.7848C17.4944 1.80664 17.2653 2.05163 17.2842 2.34019L17.8426 10.9548H17.8438Z" fill="#FCE500"/>
<path d="M20.7967 11.4118L21.4153 11.6697L26.3346 1.01982C26.4538 0.761879 26.3346 0.456825 26.0725 0.348465L25.33 0.0386966C25.0632 -0.0720189 24.7574 0.0634297 24.663 0.335507L20.7967 11.4118Z" fill="#FCE500"/>
<path d="M24.8627 14.9143L25.1567 15.5161L35.8807 10.8284C36.1416 10.7141 36.2549 10.4067 36.131 10.15L35.7792 9.42913C35.6529 9.17 35.3341 9.07107 35.0827 9.21123L24.8639 14.9143H24.8627Z" fill="#FCE500"/>
<path d="M25.9141 17.797L26.0239 18.4566L34.7291 17.5284C35.0172 17.4978 35.2203 17.2293 35.1707 16.9442L35.0361 16.1716C34.9865 15.8865 34.7055 15.7028 34.4234 15.7711L25.9141 17.7982V17.797Z" fill="#FCE500"/>
<path d="M15.5622 11.4118L14.9436 11.6697L10.0243 1.01982C9.90506 0.761879 10.0243 0.456825 10.2864 0.348465L11.0289 0.0386966C11.2957 -0.0720189 11.6015 0.0634297 11.6959 0.335507L15.5622 11.4118Z" fill="#FCE500"/>
<path d="M13.1142 12.8743L12.6337 13.3419L8.7497 9.97799C8.52776 9.786 8.51832 9.44561 8.72845 9.24067L9.26088 8.72243C9.47692 8.5116 9.82989 8.53869 10.0117 8.77896L13.1142 12.8731V12.8743Z" fill="#FCE500"/>
<path d="M23.2447 12.8743L23.7252 13.3419L27.6091 9.97799C27.8311 9.786 27.8405 9.44561 27.6304 9.24067L27.098 8.72243C26.8819 8.5116 26.5289 8.53869 26.3471 8.77896L23.2447 12.8731V12.8743Z" fill="#FCE500"/>
<path d="M11.4963 14.9143L11.2023 15.5161L0.478304 10.8284C0.217405 10.7141 0.104073 10.4067 0.22803 10.15L0.579832 9.42913C0.70615 9.17 1.02489 9.07107 1.27635 9.21123L11.4951 14.9143H11.4963Z" fill="#FCE500"/>
<path d="M10.4464 17.797L10.3367 18.4566L1.63136 17.5284C1.34331 17.4978 1.14026 17.2293 1.18984 16.9442L1.32442 16.1716C1.374 15.8865 1.65497 15.7028 1.93712 15.7711L10.4464 17.7982V17.797Z" fill="#FCE500"/>
<path d="M16.9066 29.939H19.453L19.2877 28.4844H17.0718L16.9066 29.939Z" fill="#27509B"/>
<path d="M18.8877 24.9736H17.4699L17.386 25.7121H18.9715L18.8877 24.9736Z" fill="#27509B"/>
<path d="M19.059 26.4834H17.2988L17.1902 27.4363H19.1676L19.059 26.4834Z" fill="#27509B"/>
<path d="M16.2181 36H20.1422L19.9321 34.1426H16.4294L16.2181 36Z" fill="#27509B"/>
<path d="M16.5931 32.7041H19.7675L19.5881 31.127H16.7725L16.5931 32.7041Z" fill="#27509B"/>
<path d="M42.1992 15.0387V3.19336H46.8328L46.7174 12.2748L52.7527 3.19336H57.7326L50.3781 13.5251C49.6196 14.6109 48.8776 15.0387 47.7398 15.0387H42.1992Z" fill="#27509B"/>
<path d="M59.8246 15.0387H55.158L59.4783 3.19336H64.1449L59.8246 15.0387Z" fill="#27509B"/>
<path d="M72.7719 10.136L72.8873 5.28274L69.6553 10.136H72.7719ZM72.6565 15.0387L72.7059 12.9822H67.7755L66.4068 15.0387H61.5753L68.9298 4.70693C69.6883 3.60466 70.4468 3.19336 71.6176 3.19336H77.0263V15.0387H72.6565Z" fill="#27509B"/>
<path d="M46.4723 30.9764L46.5052 22.224L43.3062 30.9764H39.2662L43.5866 19.1311H48.6159C49.9186 19.1311 50.2979 19.7892 50.2814 21.0724L50.3639 26.2547L55.2943 19.1311H62.5168L58.213 30.9764H53.4969L56.63 22.4215L50.4958 30.9764H46.4723Z" fill="#27509B"/>
<path d="M65.6401 30.9764H60.9735L65.2938 19.1311H69.9604L65.6401 30.9764Z" fill="#27509B"/>
<path d="M82.9077 22.586C82.0008 22.1911 80.5002 21.8621 79.214 21.8621C77.0209 21.8621 75.3389 22.5037 74.4814 24.988C73.6734 27.3077 74.8277 28.229 77.4661 28.229C78.7193 28.229 80.1869 28.048 81.1433 27.8012L80.022 30.8613C78.7523 31.1903 77.4661 31.2726 76.1139 31.2726C70.5734 31.2726 68.4792 28.5087 70.0952 24.1325C71.5957 20.0195 74.9102 18.835 79.1151 18.835C80.9124 18.835 82.6274 19.164 83.9631 19.6411L82.9077 22.586Z" fill="#27509B"/>
<path d="M91.0012 30.9764L92.6172 26.5344H88.5607L86.9447 30.9764H82.2781L86.5984 19.1311H91.2651L89.6491 23.5566H93.7055L95.3215 19.1311H99.9881L95.6678 30.9764H91.0012Z" fill="#27509B"/>
<path d="M98.4458 30.9764L102.766 19.1311H114.194L113.204 21.8621H106.443L105.784 23.6718H111.869L110.846 26.4028H104.778L104.102 28.2454H110.863L109.873 30.9764H98.4458Z" fill="#27509B"/>
<path d="M112.101 30.9764L116.422 19.1311H121.088L117.856 27.9986H123.974L122.886 30.9764H112.101Z" fill="#27509B"/>
<path d="M129.409 30.9764H124.743L129.063 19.1311H133.729L129.409 30.9764Z" fill="#27509B"/>
<path d="M140.13 30.9764L139.388 22.3063L136.222 30.9764H132.182L136.503 19.1311H141.548C142.736 19.1311 143.148 19.8056 143.148 20.9243L143.89 27.8999L147.089 19.1311H151.145L146.825 30.9764H140.13Z" fill="#27509B"/>
</svg>
